<svg width="822" height="482" viewBox="0 0 822 482" fill="none" xmlns="http://www.w3.org/2000/svg">
<path d="M0.00107927 -13.5C0.00107927 -23.4381 61.7648 -53.725 111.576 -13.5C161.388 26.725 399.638 172.749 497.481 139.149C524.342 129.925 610.44 67.0687 637.36 76.1152L698.846 96.7775C727.894 106.539 742.137 139.27 729.482 167.179L726.908 172.855C714.4 200.439 744.448 229.786 751.569 259.224C755.437 275.213 745.034 299.535 701.33 336.389C621.489 403.717 702.044 394.815 758.396 383.182C785.082 377.673 814.787 388.184 819.807 414.968C825.807 446.983 815.268 484.777 729.558 480.899C664.294 477.947 583.99 459.852 515.013 440.698C415.194 412.979 308.021 415.708 213.875 458.935C182.354 473.407 148.079 480.899 113.395 480.899H101.389C42.0903 467.449 0.00042884 414.742 0.00103301 353.937L0.00108602 348.602C0.00108602 348.602 0.00107927 -3.56195 0.00107927 -13.5Z" fill="#B9ECFF" fill-opacity="0.6"/>
<path d="M0.00107927 -13.5C0.00107927 -23.4381 61.7648 -53.725 111.576 -13.5C161.388 26.725 399.638 172.749 497.481 139.149C524.342 129.925 610.44 67.0687 637.36 76.1152L698.846 96.7775C727.894 106.539 742.137 139.27 729.482 167.179L726.908 172.855C714.4 200.439 744.448 229.786 751.569 259.224C755.437 275.213 745.034 299.535 701.33 336.389C621.489 403.717 702.044 394.815 758.396 383.182C785.082 377.673 814.787 388.184 819.807 414.968C825.807 446.983 815.268 484.777 729.558 480.899C664.294 477.947 583.99 459.852 515.013 440.698C415.194 412.979 308.021 415.708 213.875 458.935C182.354 473.407 148.079 480.899 113.395 480.899H101.389C42.0903 467.449 0.00042884 414.742 0.00103301 353.937L0.00108602 348.602C0.00108602 348.602 0.00107927 -3.56195 0.00107927 -13.5Z" fill="url(#paint0_linear)"/>
<defs>
<linearGradient id="paint0_linear" x1="618.845" y1="128.749" x2="27.0865" y2="466.474" gradientUnits="userSpaceOnUse">
<stop stop-color="#FEF0BD"/>
<stop offset="1" stop-color="white" stop-opacity="0"/>
</linearGradient>
</defs>
</svg>
