<svg width="38" height="36" viewBox="0 0 38 36" fill="none" xmlns="http://www.w3.org/2000/svg">
<g clip-path="url(#clip0)">
<path fill-rule="evenodd" clip-rule="evenodd" d="M9.96585 22.3186V4.75699H12.7757V22.3186H9.96585ZM14.0803 22.3186V19.5338C16.0037 19.5338 16.9821 18.8314 17.0156 17.4264V17.3763V9.69933C17.0156 8.69581 16.4553 8.03516 15.3347 7.71738C14.95 7.6003 14.5319 7.54176 14.0803 7.54176V4.75699C16.2211 4.75699 17.8184 5.45945 18.8721 6.86438C19.4909 7.70065 19.8004 8.64563 19.8004 9.69933V17.3763C19.8004 19.7011 18.7048 21.2231 16.5138 21.9423C15.7612 22.1932 14.95 22.3186 14.0803 22.3186ZM24.3743 21.8579L24.6816 21.841L24.799 23.8982L24.4917 23.9152L24.4399 23.0068L23.4512 23.0613L23.545 24.7044L24.4134 24.6565L24.4287 24.9237L20.6879 25.1299L20.6726 24.8627L21.541 24.8148L21.4472 23.1717L18.321 23.344L18.3057 23.0769L21.7805 17.2705L23.1165 17.1969L23.436 22.7941L24.4246 22.7396L24.3743 21.8579ZM21.432 22.9045L21.1963 18.7768L18.6531 23.0577L21.432 22.9045ZM23.618 26.1628L23.5314 26.5176L28.5087 27.6918L28.5954 27.337L27.0828 26.7121L28.4741 21.0177L33.4651 15.8329L34.971 15.3125L35.0618 14.9407L31.2696 14.0461L31.1788 14.4179L33.0122 15.7082L28.3865 20.4966L26.3299 13.5241L27.9621 13.659L28.053 13.2873L22.9571 12.0851L22.8663 12.4568L24.146 13.0089L26.5095 21.1439L25.2544 26.2807L23.618 26.1628Z" fill="black"/>
<g filter="url(#filter0_bd)">
<path fill-rule="evenodd" clip-rule="evenodd" d="M39.903 -3.35211L-1.52734 -3.70133L-1.87239 34.4887L39.558 34.838L39.5951 30.7356L1.57336 30.4151L1.88134 -3.6721L39.903 -3.35161L39.903 -3.35211Z" fill="url(#paint0_linear)"/>
<path fill-rule="evenodd" clip-rule="evenodd" d="M39.903 -3.35211L-1.52734 -3.70133L-1.87239 34.4887L39.558 34.838L39.5951 30.7356L1.57336 30.4151L1.88134 -3.6721L39.903 -3.35161L39.903 -3.35211Z" fill="url(#paint1_linear)"/>
</g>
</g>
<defs>
<filter id="filter0_bd" x="-3.04918" y="-4.87811" width="44.129" height="42.0696" filterUnits="userSpaceOnUse" color-interpolation-filters="sRGB">
<feFlood flood-opacity="0" result="BackgroundImageFix"/>
<feGaussianBlur in="BackgroundImage" stdDeviation="0.588386"/>
<feComposite in2="SourceAlpha" operator="in" result="effect1_backgroundBlur"/>
<feColorMatrix in="SourceAlpha" type="matrix" values="0 0 0 0 0 0 0 0 0 0 0 0 0 0 0 0 0 0 127 0"/>
<feOffset dy="1.17677"/>
<feGaussianBlur stdDeviation="0.588386"/>
<feColorMatrix type="matrix" values="0 0 0 0 0 0 0 0 0 0 0 0 0 0 0 0 0 0 0.25 0"/>
<feBlend mode="normal" in2="effect1_backgroundBlur" result="effect2_dropShadow"/>
<feBlend mode="normal" in="SourceGraphic" in2="effect2_dropShadow" result="shape"/>
</filter>
<linearGradient id="paint0_linear" x1="19.1849" y1="-3.52978" x2="18.8574" y2="34.6665" gradientUnits="userSpaceOnUse">
<stop offset="1" stop-color="#070707" stop-opacity="0.76"/>
<stop offset="1" stop-color="#070707" stop-opacity="0"/>
</linearGradient>
<linearGradient id="paint1_linear" x1="19.1849" y1="-3.52978" x2="18.8574" y2="34.6665" gradientUnits="userSpaceOnUse">
<stop stop-color="white"/>
<stop offset="1" stop-color="white" stop-opacity="0"/>
</linearGradient>
<clipPath id="clip0">
<rect width="38" height="35.0563" fill="white"/>
</clipPath>
</defs>
</svg>
